<mxfile host="app.diagrams.net" modified="2023-04-26T12:28:57.889Z" agent="Mozilla/5.0 (Windows NT 10.0; Win64; x64) AppleWebKit/537.36 (KHTML, like Gecko) Chrome/111.0.0.0 Safari/537.36" version="21.2.2" etag="A3A0Ik1s-ccKfLRyQLgt" type="github">
  <diagram name="第 1 页" id="KoQNOoXMbYAwLseSnLz3">
    <mxGraphModel>
      <root>
        <mxCell id="0" />
        <mxCell id="1" parent="0" />
      </root>
    </mxGraphModel>
  </diagram>
</mxfile>
